<svg width='32' height='32' viewBox="0 0 100 100" xmlns="http://www.w3.org/2000/svg"><path d="M83.5 71.2a45.1 45.1 0 01-4.4 8 40.7 40.7 0 01-5.8 7 11.2 11.2 0 01-7.4 3.3c-1.9 0-4.2-.6-6.8-1.7-2.7-1-5.1-1.6-7.4-1.6-2.3 0-4.8.5-7.5 1.6s-5 1.7-6.6 1.7c-2.5.2-5-1-7.5-3.3a49.8 49.8 0 01-15-35c-.1-5.5 1.1-10.3 3.5-14.3a21.2 21.2 0 0117.8-10.6c2 0 4.7.7 8 1.9 3.2 1.2 5.3 1.8 6.2 1.8.7 0 3-.7 7-2.1a23 23 0 019.4-1.7c7 .5 12.3 3.3 15.8 8.3a17.5 17.5 0 00-9.3 15.9c0 5.3 2 9.7 5.7 13.2a19 19 0 005.8 3.8 62.4 62.4 0 01-1.5 3.8zm-16-63c0 4-1.5 8-4.5 11.5-3.7 4.3-8.1 6.8-13 6.4a13 13 0 010-1.6c0-4 1.7-8.2 4.8-11.7 1.6-1.8 3.5-3.3 5.9-4.4 2.4-1.2 4.6-1.8 6.7-2l.1 1.7z"/></svg>