<svg xmlns="http://www.w3.org/2000/svg" width="32" height="32" viewBox="0 0 100 100"><path d="M90.5 57.86c0-6.26-5.08-11.34-11.34-11.34-2.32 0-3.82.32-3.82.32 0-8.65-7-16.05-15.66-16.05-3.35 0-6.43 1.03-8.96 2.83-.92.8-1.17 1.38-1.17 2.65V67.5c0 1.05.5 1.66 1.67 1.66h28.06c6.2-.1 11.22-5.1 11.22-11.36zm-44.45 9.7c0 .9-.74 1.65-1.66 1.65-.98 0-1.7-.7-1.7-1.6v-28c0-.9.72-1.64 1.64-1.64.9 0 1.65.75 1.65 1.66v28zm-6.65 0c0 .9-.74 1.65-1.65 1.65-.92 0-1.67-.7-1.67-1.6v-28c0-.9.75-1.64 1.67-1.64.9 0 1.66.75 1.66 1.66v28zm-6.6 0c0 .9-.73 1.65-1.65 1.65-.92 0-1.66-.7-1.66-1.6V43.3c0-.92.7-1.66 1.6-1.66.92 0 1.66.74 1.66 1.66v24.25zm-6.63 0c0 .9-.75 1.65-1.67 1.65-.9 0-1.66-.7-1.66-1.6V49.8c0-.94.75-1.68 1.67-1.68.97 0 1.7.74 1.7 1.66v17.8zm-6.65 0c0 .9-.74 1.65-1.66 1.65-.92 0-1.66-.7-1.66-1.6V49.8c0-.94.74-1.68 1.66-1.68.92 0 1.66.74 1.66 1.66v17.8zm-6.7-2.7c0 .9-.74 1.65-1.66 1.65-.92 0-1.66-.7-1.66-1.6V53.8c0-.94.74-1.68 1.66-1.68.92 0 1.66.74 1.66 1.66v11.1z"/></svg>