<svg xmlns="http://www.w3.org/2000/svg" width="32" height="32" viewBox="0 0 100 100"><path d="M78.92 68.8H51.28c-1.28 0-1.8-.65-1.8-1.8V36.5c0-1.02.37-1.64.9-2.05 2.6-2.06 5.88-3.26 9.45-3.26 8.67 0 15.7 7 15.7 15.63v.06c1.03-.3 2.12-.54 3.26-.54 6.13 0 11.2 5 11.2 11.2 0 6.14-5 11.1-11.1 11.2zM46.1 39.58c0-.9-.73-1.64-1.64-1.64-.9 0-1.64.73-1.64 1.64v27.6c0 .9.73 1.63 1.64 1.63.9 0 1.64-.7 1.64-1.6V39.6zm-6.56 0c0-.9-.74-1.64-1.64-1.64-.9 0-1.64.73-1.64 1.64v27.6c0 .9.73 1.63 1.64 1.63.9 0 1.64-.7 1.64-1.6V39.6zm-6.52 3.64c0-.9-.73-1.64-1.64-1.64-.9 0-1.64.73-1.64 1.64v23.95c0 .9.74 1.64 1.64 1.64.9 0 1.65-.7 1.65-1.6v-24zm-6.56 6.36c0-.9-.73-1.64-1.64-1.64-.9 0-1.64.73-1.64 1.64v17.6c0 .9.73 1.63 1.64 1.63.9 0 1.64-.7 1.64-1.6V49.6zm-6.56 0c0-.9-.74-1.64-1.64-1.64-.9 0-1.65.73-1.65 1.64v17.6c0 .9.8 1.63 1.7 1.63.9 0 1.65-.7 1.65-1.6V49.6zm-6.62 3.94c0-.9-.73-1.64-1.64-1.64-.9 0-1.64.74-1.64 1.64V64.5c0 .9.73 1.64 1.64 1.64.9 0 1.64-.73 1.64-1.64V53.52z"/></svg>