<svg xmlns="http://www.w3.org/2000/svg" width="32" height="32" viewBox="0 0 100 100"><path d="M50 12c-21 0-38 17-38 38s17 38 38 38 38-17 38-38-17-38-38-38m17.43 54.8c-.7 1.13-2.15 1.48-3.26.8-8.92-5.45-20.16-6.7-33.38-3.67-1.3.3-2.6-.5-2.9-1.78-.3-1.27.5-2.54 1.8-2.83 14.5-3.3 26.9-1.9 36.9 4.23 1.1.68 1.5 2.14.8 3.26M72 56.5c-.86 1.4-2.7 1.86-4.08 1-10.2-6.3-25.8-8.1-37.87-4.42-1.56.48-3.2-.4-3.7-1.96-.46-1.57.4-3.22 2-3.7 13.8-4.2 30.95-2.16 42.7 5.05 1.4.86 1.8 2.68.96 4.07m.4-10.76c-12.23-7.32-32.43-8-44.13-4.42-1.88.54-3.86-.5-4.43-2.4-.57-1.87.5-3.86 2.37-4.43C39.7 30.4 62 31.2 76.1 39.6c1.7 1 2.25 3.2 1.25 4.88-1 1.68-3.2 2.24-4.87 1.24"/></svg>